<svg width="12" height="12" viewBox="0 0 12 12" fill="none" xmlns="http://www.w3.org/2000/svg">
<path d="M10.0001 4.5H5.50002C4.94773 4.5 4.5 4.94773 4.5 5.50002V10.0001C4.5 10.5524 4.94773 11.0002 5.50002 11.0002H10.0001C10.5524 11.0002 11.0002 10.5524 11.0002 10.0001V5.50002C11.0002 4.94773 10.5524 4.5 10.0001 4.5Z" stroke="#04A8F0" stroke-linecap="round" stroke-linejoin="round"/>
<path d="M2.50004 7.50016H2.00002C1.7348 7.50016 1.48044 7.3948 1.2929 7.20726C1.10536 7.01972 1 6.76536 1 6.50013V2.00002C1 1.7348 1.10536 1.48044 1.2929 1.2929C1.48044 1.10536 1.7348 1 2.00002 1H6.50013C6.76536 1 7.01972 1.10536 7.20726 1.2929C7.3948 1.48044 7.50016 1.7348 7.50016 2.00002V2.50004" stroke="#04A8F0" stroke-linecap="round" stroke-linejoin="round"/>
</svg>
