<svg version="1.1" id="Layer_1" xmlns="http://www.w3.org/2000/svg" xmlns:xlink="http://www.w3.org/1999/xlink" x="0px" y="0px"
	 width="100%" viewBox="0 0 1854 1854" enable-background="new 0 0 1854 1854" xml:space="preserve">
<path fill="#FFFFFF" opacity="1.000000" stroke="none" 
	d="
M1855.000000,871.000000 
	C1855.000000,909.020874 1855.000000,947.041809 1854.559570,985.540222 
	C1853.777100,986.291260 1853.159668,986.540222 1853.132812,986.841797 
	C1851.723511,1002.670593 1850.512695,1018.518494 1848.948853,1034.331665 
	C1847.875488,1045.185547 1846.753540,1056.067627 1844.878906,1066.801880 
	C1841.935547,1083.655396 1838.895386,1100.528564 1834.892334,1117.151855 
	C1828.424805,1144.010010 1821.651489,1170.818237 1814.024902,1197.365601 
	C1808.898926,1215.208496 1802.703857,1232.812012 1795.870117,1250.080566 
	C1785.438477,1276.440186 1774.531128,1302.638550 1762.884155,1328.480835 
	C1755.031494,1345.904175 1746.003296,1362.845581 1736.685547,1379.547485 
	C1726.738525,1397.377686 1716.220825,1414.921021 1705.232422,1432.129883 
	C1694.906250,1448.301758 1683.953125,1464.099976 1672.698608,1479.644531 
	C1662.044189,1494.360352 1650.882446,1508.728394 1639.486084,1522.880737 
	C1630.958862,1533.469482 1621.951660,1543.701538 1612.714600,1553.682007 
	C1599.079102,1568.414673 1585.334473,1583.069824 1571.095703,1597.213623 
	C1560.118652,1608.117432 1548.496582,1618.398438 1536.817505,1628.561401 
	C1525.371948,1638.521240 1513.882446,1648.507935 1501.712402,1657.539673 
	C1482.913574,1671.490723 1463.699341,1684.904297 1444.333618,1698.063477 
	C1417.565674,1716.251953 1389.519531,1732.368286 1360.638062,1746.925171 
	C1339.849609,1757.403076 1318.742676,1767.291382 1297.474365,1776.761230 
	C1281.093018,1784.055176 1264.437866,1790.845947 1247.547363,1796.856812 
	C1225.356201,1804.754395 1202.971924,1812.201904 1180.377075,1818.844482 
	C1159.730469,1824.914062 1138.753906,1829.910767 1117.802979,1834.874878 
	C1106.808960,1837.479858 1095.575073,1839.102539 1084.418091,1840.982178 
	C1073.705078,1842.787231 1062.967285,1844.463135 1052.211426,1845.991211 
	C1039.647949,1847.776245 1027.085693,1849.675049 1014.462341,1850.901245 
	C1002.836914,1852.030640 991.128723,1852.294556 979.466431,1853.080688 
	C978.605103,1853.138550 977.820374,1854.333740 977.000000,1855.000000 
	C945.312439,1855.000000 913.624878,1855.000000 881.771667,1854.617432 
	C880.592407,1853.823608 879.602051,1853.129761 878.561523,1853.043823 
	C865.650391,1851.978394 852.702209,1851.284546 839.822937,1849.929810 
	C823.638062,1848.227295 807.442993,1846.417480 791.371948,1843.892700 
	C773.184265,1841.035522 754.967957,1838.024048 737.054810,1833.835815 
	C711.263123,1827.805908 685.435364,1821.608887 660.175110,1813.715942 
	C634.214111,1805.603882 608.739624,1795.821777 583.385071,1785.918213 
	C563.254272,1778.055176 543.345093,1769.494873 523.839050,1760.192505 
	C493.345642,1745.650269 463.566620,1729.686890 435.344971,1711.010010 
	C415.329620,1697.763672 394.975189,1684.962769 375.623535,1670.799805 
	C356.603973,1656.880249 338.408142,1641.792236 320.319427,1626.656860 
	C305.088745,1613.912964 289.894226,1601.004395 275.839478,1587.008179 
	C259.144379,1570.382568 243.413895,1552.756226 227.781876,1535.106079 
	C216.548660,1522.422485 205.604935,1509.401245 195.535492,1495.788452 
	C182.205429,1477.767578 169.072601,1459.507202 157.270599,1440.472046 
	C140.508026,1413.436279 124.397827,1385.946777 109.229179,1357.989014 
	C98.762184,1338.697021 89.774231,1318.533447 81.189316,1298.307617 
	C71.496933,1275.472900 62.509430,1252.308105 54.089867,1228.971313 
	C40.998760,1192.686035 30.349905,1155.649414 22.999487,1117.742554 
	C18.446775,1094.263794 13.914135,1070.767212 10.147489,1047.154907 
	C7.708420,1031.864868 6.320709,1016.379028 5.102948,1000.930359 
	C3.962916,986.467896 3.574214,971.942200 3.041602,957.437500 
	C2.797214,950.782104 3.095296,944.107666 2.910038,937.448425 
	C2.877596,936.282166 1.666672,935.148621 1.000008,934.000000 
	C1.000000,930.638733 1.000000,927.277405 1.441694,923.448975 
	C2.255574,921.877686 2.912730,920.784973 2.957418,919.667664 
	C3.684109,901.499207 4.026574,883.309631 5.097433,865.162598 
	C5.945065,850.798462 7.390860,836.453430 9.076003,822.159485 
	C10.710323,808.296692 12.676308,794.455688 15.058302,780.702393 
	C18.476294,760.967651 21.569944,741.118225 26.297266,721.681458 
	C34.676731,687.228699 44.118069,653.013794 57.042305,619.922607 
	C67.760292,592.480225 78.369629,564.964478 90.220566,538.005920 
	C98.810654,518.465088 108.618469,499.363190 119.204422,480.819733 
	C133.471970,455.827057 148.769714,431.408478 164.103378,407.044373 
	C171.662643,395.033264 179.901566,383.396057 188.534317,372.126953 
	C201.494873,355.208344 214.835220,338.565155 228.460007,322.175598 
	C239.885117,308.432068 251.332382,294.610138 263.878693,281.919128 
	C280.961243,264.639648 298.868256,248.149338 316.864136,231.807800 
	C328.827332,220.944397 341.085297,210.285629 354.063232,200.687149 
	C374.695190,185.427765 395.941010,170.988205 417.104675,156.460419 
	C445.004395,137.308640 474.734131,121.254128 504.766052,105.787994 
	C518.468323,98.731461 532.533875,92.365379 546.551880,85.941849 
	C556.453552,81.404541 566.463318,77.073112 576.584351,73.051331 
	C591.021362,67.314537 605.458130,61.514511 620.159424,56.520061 
	C642.313843,48.993587 664.537537,41.581326 687.030457,35.167904 
	C706.811523,29.527714 726.931885,25.002710 747.035706,20.593136 
	C762.344666,17.235268 777.818298,14.550680 793.302246,12.093570 
	C804.721619,10.281446 816.262634,9.188806 827.773621,8.011909 
	C842.096924,6.547461 856.433777,5.180411 870.787048,4.056282 
	C879.014893,3.411897 887.290039,3.388116 895.534241,2.916006 
	C896.389893,2.867003 897.179626,1.666298 898.000000,0.999986 
	C918.354248,1.000000 938.708435,1.000000 959.228333,1.383120 
	C960.574951,2.177435 961.737976,2.877231 962.939941,2.952191 
	C969.852722,3.383311 976.787720,3.499217 983.691040,4.033500 
	C999.536194,5.259847 1015.380615,6.527958 1031.199951,8.044590 
	C1042.716797,9.148727 1054.255005,10.289024 1065.671265,12.115412 
	C1079.705688,14.360611 1093.722168,16.905254 1107.569214,20.090857 
	C1132.165405,25.749376 1156.842896,31.240330 1181.085205,38.198616 
	C1204.324097,44.868904 1227.362061,52.511147 1249.927612,61.185093 
	C1277.128662,71.640900 1304.156250,82.752129 1330.483276,95.217827 
	C1355.449341,107.039185 1379.699463,120.474602 1403.720581,134.155411 
	C1420.621460,143.781174 1436.696411,154.876877 1452.989624,165.546066 
	C1482.360352,184.778687 1510.133179,206.147934 1536.620361,229.168900 
	C1551.870605,242.423370 1567.261597,255.563629 1581.798462,269.575714 
	C1592.924927,280.300720 1603.094238,292.069275 1613.180054,303.810974 
	C1626.147095,318.906769 1639.309692,333.919769 1651.111816,349.910461 
	C1667.491699,372.103729 1683.406982,394.713898 1698.196289,417.987457 
	C1715.000977,444.432587 1730.830566,471.533722 1746.155640,498.870178 
	C1756.600342,517.501282 1766.262329,536.671265 1774.813843,556.238525 
	C1785.969482,581.764954 1796.241577,607.717224 1805.821289,633.878906 
	C1812.481934,652.068604 1817.751465,670.805786 1822.879883,689.507568 
	C1827.768433,707.335083 1832.091797,725.345093 1835.880981,743.438782 
	C1839.460571,760.531555 1842.202759,777.808533 1844.973999,795.059021 
	C1847.241821,809.174866 1849.297974,823.338440 1850.902954,837.542480 
	C1852.064697,847.822449 1852.290039,858.206665 1853.080200,868.533142 
	C1853.146484,869.399353 1854.333618,870.179749 1855.000000,871.000000 
M631.459961,831.000366 
	C618.458862,836.000488 605.456665,840.997742 592.456970,846.001404 
	C571.831421,853.940247 551.201050,861.866882 530.584351,869.828735 
	C504.587097,879.868469 478.548004,889.803101 452.629578,900.042786 
	C435.362366,906.864563 417.464203,912.182861 401.385742,921.891296 
	C392.514465,927.248047 385.432312,933.921997 380.870056,943.372131 
	C376.309570,952.818665 380.316711,963.781677 388.146454,969.060730 
	C396.010223,974.362793 404.757263,977.006897 413.802307,979.521423 
	C433.567230,985.016052 453.112030,991.305542 472.730347,997.323853 
	C502.161621,1006.352417 531.587585,1015.398743 560.999268,1024.490845 
	C584.736572,1031.828735 608.436279,1039.289062 632.182312,1046.598389 
	C638.414917,1048.516968 644.057007,1050.349487 650.877563,1045.900269 
	C680.256775,1026.734497 710.131104,1008.327942 739.822266,989.640503 
	C766.787964,972.668396 793.748291,955.688049 820.713928,938.716003 
	C850.405212,920.028381 880.101257,901.348267 909.792603,882.660706 
	C936.758179,865.688599 963.734619,848.733582 990.680176,831.729736 
	C1024.843872,810.171021 1058.995972,788.594055 1093.125366,766.981201 
	C1121.819702,748.810303 1150.328125,730.338196 1179.278198,712.585632 
	C1184.646240,709.293884 1191.635986,708.031128 1198.046387,707.284790 
	C1201.891235,706.837280 1207.031128,707.253235 1209.001099,712.491394 
	C1210.889038,717.511841 1207.670044,720.797729 1204.668945,723.697754 
	C1197.807007,730.328186 1190.566162,736.565063 1183.521729,743.008362 
	C1167.467651,757.692688 1151.453857,772.421143 1135.395142,787.100403 
	C1124.456665,797.099243 1113.450195,807.023682 1102.509033,817.019531 
	C1086.569214,831.582214 1070.672119,846.191589 1054.735107,860.757324 
	C1043.673096,870.867554 1032.552368,880.913635 1021.497498,891.031738 
	C1005.202454,905.946045 988.963013,920.921143 972.660767,935.827576 
	C961.969604,945.603333 951.178101,955.269348 940.487000,965.045166 
	C924.184814,979.951721 907.946472,994.927917 891.650696,1009.841492 
	C880.595337,1019.959167 869.473328,1030.003784 858.408020,1040.110596 
	C842.589294,1054.559204 826.803833,1069.044189 810.987671,1083.495728 
	C799.801392,1093.716797 788.525391,1103.841064 777.454834,1114.185547 
	C775.831360,1115.702759 774.515442,1118.091309 774.116333,1120.270508 
	C773.093262,1125.857178 772.518738,1131.540405 772.031433,1137.207886 
	C770.935486,1149.955200 770.005798,1162.716797 768.999329,1175.471802 
	C768.005859,1188.061035 766.916260,1200.643433 766.026672,1213.239990 
	C765.238403,1224.401855 764.680054,1235.579834 763.994019,1246.749146 
	C763.691833,1251.669800 763.410767,1256.594238 762.971436,1261.503540 
	C761.687744,1275.848267 760.203064,1290.176270 759.041138,1304.530518 
	C758.165283,1315.350586 757.742126,1326.206665 756.965881,1337.035767 
	C756.572083,1342.528931 755.843262,1347.998047 755.242004,1353.704956 
	C755.719543,1353.786133 756.337769,1353.938354 756.963989,1353.984985 
	C757.626282,1354.034424 758.312073,1354.075562 758.960327,1353.963013 
	C776.751038,1350.872437 791.169495,1341.168945 804.464722,1329.817383 
	C814.032227,1321.648438 822.725708,1312.454834 831.794617,1303.703369 
	C841.702942,1294.141968 851.629639,1284.599243 861.485596,1274.984009 
	C877.663757,1259.201172 893.790100,1243.365479 909.942200,1227.555908 
	C911.225220,1226.300049 912.538269,1225.074951 913.915710,1223.760864 
	C929.457703,1235.278076 944.806641,1246.632202 960.133911,1258.015503 
	C978.859009,1271.922607 997.546021,1285.881104 1016.286194,1299.767822 
	C1034.883301,1313.548218 1053.546509,1327.239258 1072.142700,1341.020752 
	C1090.882446,1354.908813 1109.711060,1368.682739 1128.241211,1382.846069 
	C1140.482056,1392.202393 1153.039795,1400.728149 1168.196289,1404.649170 
	C1178.594971,1407.339600 1188.855591,1408.600098 1199.028320,1403.539673 
	C1214.191284,1395.996948 1220.391724,1381.959961 1224.836182,1367.113647 
	C1228.474609,1354.960327 1230.746826,1342.392456 1233.495361,1329.979614 
	C1236.735718,1315.345215 1239.886597,1300.690308 1242.985474,1286.025146 
	C1246.852539,1267.724731 1250.577881,1249.394165 1254.457397,1231.096436 
	C1257.565674,1216.435425 1260.861694,1201.814453 1263.985107,1187.156494 
	C1267.546753,1170.442505 1270.974854,1153.700195 1274.525024,1136.983643 
	C1277.973755,1120.744019 1281.569336,1104.535278 1284.980103,1088.287842 
	C1288.824097,1069.977661 1292.437866,1051.618652 1296.326904,1033.318237 
	C1300.781738,1012.355835 1305.523315,991.454224 1309.966919,970.489502 
	C1314.481445,949.190796 1318.679688,927.825073 1323.211426,906.530090 
	C1327.336060,887.148071 1331.836670,867.846069 1335.960083,848.463806 
	C1339.853760,830.162659 1343.355225,811.778076 1347.244019,793.475891 
	C1351.362549,774.091919 1355.841064,754.784424 1359.964600,735.401489 
	C1363.857788,717.100952 1367.527710,698.752563 1371.234009,680.412720 
	C1375.196167,660.807251 1379.189087,641.206970 1382.972412,621.566711 
	C1385.651611,607.657837 1383.588013,594.390198 1375.980591,582.345764 
	C1367.471802,568.874329 1355.882324,559.752869 1339.106323,561.223572 
	C1331.226318,561.914368 1323.324951,564.361511 1315.832886,567.104065 
	C1292.975830,575.470947 1270.299927,584.334351 1247.578369,593.068787 
	C1226.052490,601.343445 1204.566528,609.721497 1183.047119,618.013000 
	C1163.917969,625.383484 1144.743896,632.638428 1125.631348,640.051697 
	C1102.633789,648.972046 1079.704468,658.068787 1056.700195,666.971985 
	C1035.642822,675.121643 1014.517334,683.095032 993.435974,691.182922 
	C971.754883,699.500977 950.088135,707.856567 928.419983,716.208252 
	C907.796204,724.157410 887.169739,732.099854 866.560791,740.087341 
	C845.204468,748.364563 823.880798,756.726013 802.518860,764.988403 
	C781.906311,772.960999 761.257080,780.838806 740.634827,788.786194 
	C716.275146,798.173950 691.915222,807.561401 667.579041,817.009827 
	C655.780212,821.590698 644.035339,826.310364 631.459961,831.000366 
z"/>
<path fill="#000000" opacity="1.000000" stroke="none" 
	d="
M897.531372,0.999986 
	C897.179626,1.666298 896.389893,2.867003 895.534241,2.916006 
	C887.290039,3.388116 879.014893,3.411897 870.787048,4.056282 
	C856.433777,5.180411 842.096924,6.547461 827.773621,8.011909 
	C816.262634,9.188806 804.721619,10.281446 793.302246,12.093570 
	C777.818298,14.550680 762.344666,17.235268 747.035706,20.593136 
	C726.931885,25.002710 706.811523,29.527714 687.030457,35.167904 
	C664.537537,41.581326 642.313843,48.993587 620.159424,56.520061 
	C605.458130,61.514511 591.021362,67.314537 576.584351,73.051331 
	C566.463318,77.073112 556.453552,81.404541 546.551880,85.941849 
	C532.533875,92.365379 518.468323,98.731461 504.766052,105.787994 
	C474.734131,121.254128 445.004395,137.308640 417.104675,156.460419 
	C395.941010,170.988205 374.695190,185.427765 354.063232,200.687149 
	C341.085297,210.285629 328.827332,220.944397 316.864136,231.807800 
	C298.868256,248.149338 280.961243,264.639648 263.878693,281.919128 
	C251.332382,294.610138 239.885117,308.432068 228.460007,322.175598 
	C214.835220,338.565155 201.494873,355.208344 188.534317,372.126953 
	C179.901566,383.396057 171.662643,395.033264 164.103378,407.044373 
	C148.769714,431.408478 133.471970,455.827057 119.204422,480.819733 
	C108.618469,499.363190 98.810654,518.465088 90.220566,538.005920 
	C78.369629,564.964478 67.760292,592.480225 57.042305,619.922607 
	C44.118069,653.013794 34.676731,687.228699 26.297266,721.681458 
	C21.569944,741.118225 18.476294,760.967651 15.058302,780.702393 
	C12.676308,794.455688 10.710323,808.296692 9.076003,822.159485 
	C7.390860,836.453430 5.945065,850.798462 5.097433,865.162598 
	C4.026574,883.309631 3.684109,901.499207 2.957418,919.667664 
	C2.912730,920.784973 2.255574,921.877686 1.441694,922.990967 
	C1.000000,615.740540 1.000000,308.481140 1.000000,1.000000 
	C299.687531,1.000000 598.375122,1.000000 897.531372,0.999986 
z"/>
<path fill="#000000" opacity="1.000000" stroke="none" 
	d="
M1.000008,934.468628 
	C1.666672,935.148621 2.877596,936.282166 2.910038,937.448425 
	C3.095296,944.107666 2.797214,950.782104 3.041602,957.437500 
	C3.574214,971.942200 3.962916,986.467896 5.102948,1000.930359 
	C6.320709,1016.379028 7.708420,1031.864868 10.147489,1047.154907 
	C13.914135,1070.767212 18.446775,1094.263794 22.999487,1117.742554 
	C30.349905,1155.649414 40.998760,1192.686035 54.089867,1228.971313 
	C62.509430,1252.308105 71.496933,1275.472900 81.189316,1298.307617 
	C89.774231,1318.533447 98.762184,1338.697021 109.229179,1357.989014 
	C124.397827,1385.946777 140.508026,1413.436279 157.270599,1440.472046 
	C169.072601,1459.507202 182.205429,1477.767578 195.535492,1495.788452 
	C205.604935,1509.401245 216.548660,1522.422485 227.781876,1535.106079 
	C243.413895,1552.756226 259.144379,1570.382568 275.839478,1587.008179 
	C289.894226,1601.004395 305.088745,1613.912964 320.319427,1626.656860 
	C338.408142,1641.792236 356.603973,1656.880249 375.623535,1670.799805 
	C394.975189,1684.962769 415.329620,1697.763672 435.344971,1711.010010 
	C463.566620,1729.686890 493.345642,1745.650269 523.839050,1760.192505 
	C543.345093,1769.494873 563.254272,1778.055176 583.385071,1785.918213 
	C608.739624,1795.821777 634.214111,1805.603882 660.175110,1813.715942 
	C685.435364,1821.608887 711.263123,1827.805908 737.054810,1833.835815 
	C754.967957,1838.024048 773.184265,1841.035522 791.371948,1843.892700 
	C807.442993,1846.417480 823.638062,1848.227295 839.822937,1849.929810 
	C852.702209,1851.284546 865.650391,1851.978394 878.561523,1853.043823 
	C879.602051,1853.129761 880.592407,1853.823608 881.302979,1854.617432 
	C587.737915,1855.000000 294.475800,1855.000000 1.000000,1855.000000 
	C1.000000,1548.312500 1.000000,1241.624878 1.000008,934.468628 
z"/>
<path fill="#000000" opacity="1.000000" stroke="none" 
	d="
M1855.000000,870.531372 
	C1854.333618,870.179749 1853.146484,869.399353 1853.080200,868.533142 
	C1852.290039,858.206665 1852.064697,847.822449 1850.902954,837.542480 
	C1849.297974,823.338440 1847.241821,809.174866 1844.973999,795.059021 
	C1842.202759,777.808533 1839.460571,760.531555 1835.880981,743.438782 
	C1832.091797,725.345093 1827.768433,707.335083 1822.879883,689.507568 
	C1817.751465,670.805786 1812.481934,652.068604 1805.821289,633.878906 
	C1796.241577,607.717224 1785.969482,581.764954 1774.813843,556.238525 
	C1766.262329,536.671265 1756.600342,517.501282 1746.155640,498.870178 
	C1730.830566,471.533722 1715.000977,444.432587 1698.196289,417.987457 
	C1683.406982,394.713898 1667.491699,372.103729 1651.111816,349.910461 
	C1639.309692,333.919769 1626.147095,318.906769 1613.180054,303.810974 
	C1603.094238,292.069275 1592.924927,280.300720 1581.798462,269.575714 
	C1567.261597,255.563629 1551.870605,242.423370 1536.620361,229.168900 
	C1510.133179,206.147934 1482.360352,184.778687 1452.989624,165.546066 
	C1436.696411,154.876877 1420.621460,143.781174 1403.720581,134.155411 
	C1379.699463,120.474602 1355.449341,107.039185 1330.483276,95.217827 
	C1304.156250,82.752129 1277.128662,71.640900 1249.927612,61.185093 
	C1227.362061,52.511147 1204.324097,44.868904 1181.085205,38.198616 
	C1156.842896,31.240330 1132.165405,25.749376 1107.569214,20.090857 
	C1093.722168,16.905254 1079.705688,14.360611 1065.671265,12.115412 
	C1054.255005,10.289024 1042.716797,9.148727 1031.199951,8.044590 
	C1015.380615,6.527958 999.536194,5.259847 983.691040,4.033500 
	C976.787720,3.499217 969.852722,3.383311 962.939941,2.952191 
	C961.737976,2.877231 960.574951,2.177435 959.697021,1.383120 
	C1258.259399,1.000000 1556.518799,1.000000 1855.000000,1.000000 
	C1855.000000,290.687531 1855.000000,580.375122 1855.000000,870.531372 
z"/>
<path fill="#000000" opacity="1.000000" stroke="none" 
	d="
M977.468628,1855.000000 
	C977.820374,1854.333740 978.605103,1853.138550 979.466431,1853.080688 
	C991.128723,1852.294556 1002.836914,1852.030640 1014.462341,1850.901245 
	C1027.085693,1849.675049 1039.647949,1847.776245 1052.211426,1845.991211 
	C1062.967285,1844.463135 1073.705078,1842.787231 1084.418091,1840.982178 
	C1095.575073,1839.102539 1106.808960,1837.479858 1117.802979,1834.874878 
	C1138.753906,1829.910767 1159.730469,1824.914062 1180.377075,1818.844482 
	C1202.971924,1812.201904 1225.356201,1804.754395 1247.547363,1796.856812 
	C1264.437866,1790.845947 1281.093018,1784.055176 1297.474365,1776.761230 
	C1318.742676,1767.291382 1339.849609,1757.403076 1360.638062,1746.925171 
	C1389.519531,1732.368286 1417.565674,1716.251953 1444.333618,1698.063477 
	C1463.699341,1684.904297 1482.913574,1671.490723 1501.712402,1657.539673 
	C1513.882446,1648.507935 1525.371948,1638.521240 1536.817505,1628.561401 
	C1548.496582,1618.398438 1560.118652,1608.117432 1571.095703,1597.213623 
	C1585.334473,1583.069824 1599.079102,1568.414673 1612.714600,1553.682007 
	C1621.951660,1543.701538 1630.958862,1533.469482 1639.486084,1522.880737 
	C1650.882446,1508.728394 1662.044189,1494.360352 1672.698608,1479.644531 
	C1683.953125,1464.099976 1694.906250,1448.301758 1705.232422,1432.129883 
	C1716.220825,1414.921021 1726.738525,1397.377686 1736.685547,1379.547485 
	C1746.003296,1362.845581 1755.031494,1345.904175 1762.884155,1328.480835 
	C1774.531128,1302.638550 1785.438477,1276.440186 1795.870117,1250.080566 
	C1802.703857,1232.812012 1808.898926,1215.208496 1814.024902,1197.365601 
	C1821.651489,1170.818237 1828.424805,1144.010010 1834.892334,1117.151855 
	C1838.895386,1100.528564 1841.935547,1083.655396 1844.878906,1066.801880 
	C1846.753540,1056.067627 1847.875488,1045.185547 1848.948853,1034.331665 
	C1850.512695,1018.518494 1851.723511,1002.670593 1853.132812,986.841797 
	C1853.159668,986.540222 1853.777100,986.291260 1854.559570,986.008911 
	C1855.000000,1275.594116 1855.000000,1565.188354 1855.000000,1855.000000 
	C1562.645752,1855.000000 1270.291504,1855.000000 977.468628,1855.000000 
z"/>
<path fill="#000000" opacity="1.000000" stroke="none" 
	d="
M631.862976,830.983765 
	C644.035339,826.310364 655.780212,821.590698 667.579041,817.009827 
	C691.915222,807.561401 716.275146,798.173950 740.634827,788.786194 
	C761.257080,780.838806 781.906311,772.960999 802.518860,764.988403 
	C823.880798,756.726013 845.204468,748.364563 866.560791,740.087341 
	C887.169739,732.099854 907.796204,724.157410 928.419983,716.208252 
	C950.088135,707.856567 971.754883,699.500977 993.435974,691.182922 
	C1014.517334,683.095032 1035.642822,675.121643 1056.700195,666.971985 
	C1079.704468,658.068787 1102.633789,648.972046 1125.631348,640.051697 
	C1144.743896,632.638428 1163.917969,625.383484 1183.047119,618.013000 
	C1204.566528,609.721497 1226.052490,601.343445 1247.578369,593.068787 
	C1270.299927,584.334351 1292.975830,575.470947 1315.832886,567.104065 
	C1323.324951,564.361511 1331.226318,561.914368 1339.106323,561.223572 
	C1355.882324,559.752869 1367.471802,568.874329 1375.980591,582.345764 
	C1383.588013,594.390198 1385.651611,607.657837 1382.972412,621.566711 
	C1379.189087,641.206970 1375.196167,660.807251 1371.234009,680.412720 
	C1367.527710,698.752563 1363.857788,717.100952 1359.964600,735.401489 
	C1355.841064,754.784424 1351.362549,774.091919 1347.244019,793.475891 
	C1343.355225,811.778076 1339.853760,830.162659 1335.960083,848.463806 
	C1331.836670,867.846069 1327.336060,887.148071 1323.211426,906.530090 
	C1318.679688,927.825073 1314.481445,949.190796 1309.966919,970.489502 
	C1305.523315,991.454224 1300.781738,1012.355835 1296.326904,1033.318237 
	C1292.437866,1051.618652 1288.824097,1069.977661 1284.980103,1088.287842 
	C1281.569336,1104.535278 1277.973755,1120.744019 1274.525024,1136.983643 
	C1270.974854,1153.700195 1267.546753,1170.442505 1263.985107,1187.156494 
	C1260.861694,1201.814453 1257.565674,1216.435425 1254.457397,1231.096436 
	C1250.577881,1249.394165 1246.852539,1267.724731 1242.985474,1286.025146 
	C1239.886597,1300.690308 1236.735718,1315.345215 1233.495361,1329.979614 
	C1230.746826,1342.392456 1228.474609,1354.960327 1224.836182,1367.113647 
	C1220.391724,1381.959961 1214.191284,1395.996948 1199.028320,1403.539673 
	C1188.855591,1408.600098 1178.594971,1407.339600 1168.196289,1404.649170 
	C1153.039795,1400.728149 1140.482056,1392.202393 1128.241211,1382.846069 
	C1109.711060,1368.682739 1090.882446,1354.908813 1072.142700,1341.020752 
	C1053.546509,1327.239258 1034.883301,1313.548218 1016.286194,1299.767822 
	C997.546021,1285.881104 978.859009,1271.922607 960.133911,1258.015503 
	C944.806641,1246.632202 929.457703,1235.278076 913.915710,1223.760864 
	C912.538269,1225.074951 911.225220,1226.300049 909.942200,1227.555908 
	C893.790100,1243.365479 877.663757,1259.201172 861.485596,1274.984009 
	C851.629639,1284.599243 841.702942,1294.141968 831.794617,1303.703369 
	C822.725708,1312.454834 814.032227,1321.648438 804.464722,1329.817383 
	C791.169495,1341.168945 776.751038,1350.872437 758.960327,1353.963013 
	C758.312073,1354.075562 757.626282,1354.034424 756.963989,1353.984985 
	C756.337769,1353.938354 755.719543,1353.786133 755.242004,1353.704956 
	C755.843262,1347.998047 756.572083,1342.528931 756.965881,1337.035767 
	C757.742126,1326.206665 758.165283,1315.350586 759.041138,1304.530518 
	C760.203064,1290.176270 761.687744,1275.848267 762.971436,1261.503540 
	C763.410767,1256.594238 763.691833,1251.669800 763.994019,1246.749146 
	C764.680054,1235.579834 765.238403,1224.401855 766.026672,1213.239990 
	C766.916260,1200.643433 768.005859,1188.061035 768.999329,1175.471802 
	C770.005798,1162.716797 770.935486,1149.955200 772.031433,1137.207886 
	C772.518738,1131.540405 773.093262,1125.857178 774.116333,1120.270508 
	C774.515442,1118.091309 775.831360,1115.702759 777.454834,1114.185547 
	C788.525391,1103.841064 799.801392,1093.716797 810.987671,1083.495728 
	C826.803833,1069.044189 842.589294,1054.559204 858.408020,1040.110596 
	C869.473328,1030.003784 880.595337,1019.959167 891.650696,1009.841492 
	C907.946472,994.927917 924.184814,979.951721 940.487000,965.045166 
	C951.178101,955.269348 961.969604,945.603333 972.660767,935.827576 
	C988.963013,920.921143 1005.202454,905.946045 1021.497498,891.031738 
	C1032.552368,880.913635 1043.673096,870.867554 1054.735107,860.757324 
	C1070.672119,846.191589 1086.569214,831.582214 1102.509033,817.019531 
	C1113.450195,807.023682 1124.456665,797.099243 1135.395142,787.100403 
	C1151.453857,772.421143 1167.467651,757.692688 1183.521729,743.008362 
	C1190.566162,736.565063 1197.807007,730.328186 1204.668945,723.697754 
	C1207.670044,720.797729 1210.889038,717.511841 1209.001099,712.491394 
	C1207.031128,707.253235 1201.891235,706.837280 1198.046387,707.284790 
	C1191.635986,708.031128 1184.646240,709.293884 1179.278198,712.585632 
	C1150.328125,730.338196 1121.819702,748.810303 1093.125366,766.981201 
	C1058.995972,788.594055 1024.843872,810.171021 990.680176,831.729736 
	C963.734619,848.733582 936.758179,865.688599 909.792603,882.660706 
	C880.101257,901.348267 850.405212,920.028381 820.713928,938.716003 
	C793.748291,955.688049 766.787964,972.668396 739.822266,989.640503 
	C710.131104,1008.327942 680.256775,1026.734497 650.877563,1045.900269 
	C644.057007,1050.349487 638.414917,1048.516968 632.182312,1046.598389 
	C608.436279,1039.289062 584.736572,1031.828735 560.999268,1024.490845 
	C531.587585,1015.398743 502.161621,1006.352417 472.730347,997.323853 
	C453.112030,991.305542 433.567230,985.016052 413.802307,979.521423 
	C404.757263,977.006897 396.010223,974.362793 388.146454,969.060730 
	C380.316711,963.781677 376.309570,952.818665 380.870056,943.372131 
	C385.432312,933.921997 392.514465,927.248047 401.385742,921.891296 
	C417.464203,912.182861 435.362366,906.864563 452.629578,900.042786 
	C478.548004,889.803101 504.587097,879.868469 530.584351,869.828735 
	C551.201050,861.866882 571.831421,853.940247 592.456970,846.001404 
	C605.456665,840.997742 618.458862,836.000488 631.862976,830.983765 
z"/>
</svg>