<svg width="18" height="16" viewBox="0 0 18 16" fill="none" xmlns="http://www.w3.org/2000/svg">
<path fill-rule="evenodd" clip-rule="evenodd" d="M4.44444 3.55556C3.95352 3.55556 3.55556 3.15759 3.55556 2.66667C3.55556 2.17575 3.95352 1.77778 4.44444 1.77778C4.93536 1.77778 5.33333 2.17575 5.33333 2.66667C5.33333 3.15759 4.93536 3.55556 4.44444 3.55556ZM6.95937 1.77778C6.5933 0.742051 5.60553 0 4.44444 0C3.28336 0 2.29559 0.742051 1.92952 1.77778H0.888889C0.397969 1.77778 0 2.17575 0 2.66667C0 3.15759 0.397969 3.55556 0.888889 3.55556H1.92952C2.29559 4.59128 3.28336 5.33333 4.44444 5.33333C5.60553 5.33333 6.5933 4.59128 6.95937 3.55556H16.8889C17.3798 3.55556 17.7778 3.15759 17.7778 2.66667C17.7778 2.17575 17.3798 1.77778 16.8889 1.77778H6.95937ZM0 8C0 7.50908 0.397969 7.11111 0.888889 7.11111H10.8184C11.1845 6.07538 12.1723 5.33333 13.3333 5.33333C14.4944 5.33333 15.4822 6.07538 15.8483 7.11111H16.8889C17.3798 7.11111 17.7778 7.50908 17.7778 8C17.7778 8.49092 17.3798 8.88889 16.8889 8.88889H15.8483C15.4822 9.92462 14.4944 10.6667 13.3333 10.6667C12.1723 10.6667 11.1845 9.92462 10.8184 8.88889H0.888889C0.397969 8.88889 0 8.49092 0 8ZM13.3333 7.11111C13.8243 7.11111 14.2222 7.50908 14.2222 8C14.2222 8.49092 13.8243 8.88889 13.3333 8.88889C12.8424 8.88889 12.4444 8.49092 12.4444 8C12.4444 7.50908 12.8424 7.11111 13.3333 7.11111ZM0.888889 12.4444C0.397969 12.4444 0 12.8424 0 13.3333C0 13.8243 0.397969 14.2222 0.888889 14.2222H1.92952C2.29559 15.2579 3.28336 16 4.44444 16C5.60553 16 6.5933 15.2579 6.95937 14.2222H16.8889C17.3798 14.2222 17.7778 13.8243 17.7778 13.3333C17.7778 12.8424 17.3798 12.4444 16.8889 12.4444H6.95937C6.5933 11.4087 5.60553 10.6667 4.44444 10.6667C3.28336 10.6667 2.29559 11.4087 1.92952 12.4444H0.888889ZM5.33333 13.3333C5.33333 12.8424 4.93536 12.4444 4.44444 12.4444C3.95352 12.4444 3.55556 12.8424 3.55556 13.3333C3.55556 13.8243 3.95352 14.2222 4.44444 14.2222C4.93536 14.2222 5.33333 13.8243 5.33333 13.3333Z" fill="#7F8FA4"/>
</svg>
