<?xml version="1.0" encoding="utf-8"?>
<!-- Generator: Adobe Illustrator 22.1.0, SVG Export Plug-In . SVG Version: 6.00 Build 0)  -->
<svg version="1.1" id="Слой_1" xmlns="http://www.w3.org/2000/svg" x="0px" y="0px"
     viewBox="0 0 156 149.5" style="enable-background:new 0 0 156 149.5;" xml:space="preserve">
<style type="text/css">
	.st0{fill:#04A8F0;}
	.st1{fill:#686DF1;}
</style>
<circle class="st0" cx="78" cy="26" r="26"/>
<path class="st1" d="M78,67c-26.5,0-48-21.5-48-48C31.1,6,20,6,17,9.5c-0.2,0.2-0.4,0.4-0.7,0.7C6.1,23.5,0,40,0,58.1
	c0,15.8,15,26,30.9,26h94.3c15.8,0,30.9-10.1,30.9-26c0-18-6.1-34.6-16.3-47.8c-0.2-0.3-0.4-0.5-0.7-0.7C136,6,124.9,6,126,19
	C126,45.5,104.5,67,78,67z"/>
<path class="st0" d="M86.2,145.2l21.9-31.5c4.6-6.6-0.1-15.7-8.2-15.7H78H56.1c-8.1,0-12.8,9.1-8.2,15.7l21.9,31.5
	C73.8,150.9,82.2,150.9,86.2,145.2z"/>
</svg>
