<svg width="16" height="16" viewBox="0 0 16 16" fill="none" xmlns="http://www.w3.org/2000/svg">
<path fill-rule="evenodd" clip-rule="evenodd" d="M8 0C5.87826 0 3.84334 0.84289 2.34313 2.34313C0.84289 3.84352 0 5.87819 0 8C0 10.1218 0.84289 12.1567 2.34313 13.6569C3.84352 15.1571 5.87819 16 8 16C10.1218 16 12.1567 15.1571 13.6569 13.6569C15.1571 12.1565 16 10.1218 16 8C16 5.87819 15.1571 3.84334 13.6569 2.34313C12.1565 0.84289 10.1218 0 8 0ZM8 14.2223C6.3497 14.2223 4.76708 13.5667 3.60029 12.3997C2.4333 11.2329 1.77773 9.65026 1.77773 8.00003C1.77773 6.3498 2.4333 4.76711 3.60029 3.60033C4.76715 2.43334 6.34977 1.77776 8 1.77776C9.65023 1.77776 11.2329 2.43334 12.3997 3.60033C13.5667 4.76718 14.2223 6.3498 14.2223 8.00003C14.2223 9.09226 13.9347 10.1653 13.3885 11.1112C12.8425 12.0572 12.057 12.8426 11.111 13.3887C10.1651 13.9349 9.09216 14.2224 7.9999 14.2224L8 14.2223ZM8.88902 4.44424C8.88902 4.93506 8.49109 5.33309 8.00017 5.33309C7.50925 5.33309 7.11133 4.93506 7.11133 4.44424C7.11133 3.95329 7.50925 3.55526 8.00017 3.55526C8.49109 3.55526 8.88902 3.95329 8.88902 4.44424ZM7.3716 6.48263C7.53828 6.31594 7.76446 6.22222 8.00018 6.22222L8.00021 6.22209C8.23592 6.22209 8.46209 6.31581 8.62878 6.48249C8.79548 6.64917 8.88905 6.87522 8.88905 7.11107V11.5555C8.88905 11.8732 8.71962 12.1666 8.44461 12.3254C8.16961 12.4842 7.83079 12.4842 7.55577 12.3254C7.28075 12.1666 7.11133 11.8732 7.11133 11.5555V7.11121C7.11133 6.87535 7.20492 6.64932 7.3716 6.48263Z" fill="#7F8FA4"/>
</svg>
