<svg width="19" height="20" viewBox="0 0 19 20" fill="none" xmlns="http://www.w3.org/2000/svg">
<path fill-rule="evenodd" clip-rule="evenodd" d="M7.95216 1.23861C8.13367 1.42012 8.22145 1.65988 8.21548 1.89773L8.21576 1.92058V18.2426C8.21576 18.7396 7.81282 19.1426 7.31576 19.1426C6.8187 19.1426 6.41576 18.7396 6.41576 18.2426V4.0478L2.51149 7.95207C2.16002 8.30354 1.59017 8.30354 1.2387 7.95207C0.88723 7.6006 0.88723 7.03075 1.2387 6.67928L6.67937 1.23861C7.03084 0.887138 7.60069 0.887138 7.95216 1.23861ZM11.8496 1.06616C12.3466 1.06616 12.7496 1.4691 12.7496 1.96616V16.1153L16.6539 12.2111C17.0053 11.8596 17.5752 11.8596 17.9266 12.2111C18.2781 12.5625 18.2781 13.1324 17.9266 13.4839L12.4884 18.9221C12.4804 18.9302 12.4722 18.9381 12.4639 18.9459C12.3854 19.0193 12.297 19.076 12.2032 19.116C12.0946 19.1624 11.9751 19.1881 11.8496 19.1881C11.7241 19.1881 11.6046 19.1625 11.4961 19.1161C11.4022 19.076 11.3138 19.0193 11.2353 18.9459C11.2203 18.9319 11.2058 18.9174 11.1919 18.9025C11.0416 18.7416 10.9496 18.5256 10.9496 18.2881V1.96616C10.9496 1.4691 11.3525 1.06616 11.8496 1.06616Z" fill="#7F8FA4"/>
</svg>
